<?xml version="1.0" encoding="UTF-8"?>
<svg xmlns="http://www.w3.org/2000/svg" version="1.1" viewBox="0 0 24 24">
  <defs>
    <style>
      .cls-1, .cls-2 {
        fill: #fff;
      }

      .cls-2 {
        fill-rule: evenodd;
      }

      .cls-3 {
        fill: none;
        stroke: #fff;
        stroke-miterlimit: 10;
        stroke-width: 1.5px;
      }

      .cls-4 {
        display: none;
      }
    </style>
  </defs>
  <!-- Generator: Adobe Illustrator 28.7.1, SVG Export Plug-In . SVG Version: 1.2.0 Build 142)  -->
  <g>
    <g id="Capa_1" class="cls-4">
      <g>
        <path class="cls-3" d="M12,23.2h0C5.8,23.2.8,18.2.8,12h0C.8,5.8,5.8.8,12,.8h0c6.2,0,11.2,5,11.2,11.2h0c0,6.2-5,11.2-11.2,11.2Z"/>
        <g>
          <path class="cls-1" d="M10.3,15.7c.3,0,.6-.2.9-.4.2-.2.4-.4.6-.6.2-.4.3-.8.3-1.3s-.1-.8-.3-1.2-.5-.5-.9-.7c.3-.1.5-.3.6-.4.2-.3.4-.7.4-1.2s-.1-.9-.4-1.2c-.4-.5-1.1-.8-2-.8h-3.8v7.9h3.5c.4,0,.8,0,1.1-.1ZM7.2,9.3h1.7c.4,0,.7,0,.9.1.3.1.4.4.4.7s-.1.6-.3.7c-.2.1-.5.2-.8.2h-1.9v-1.7ZM7.2,14.5v-2.1h1.9c.3,0,.6,0,.8.1.3.2.5.4.5.8s-.2.8-.5,1c-.2,0-.5.1-.8.1h-1.9Z"/>
          <g>
            <path class="cls-1" d="M13.5,15.3c.6.5,1.3.7,2,.7s1.7-.3,2.2-.8c.3-.4.5-.7.6-1.1h-1.6c0,.2-.2.3-.3.4-.2.2-.5.3-.8.3s-.6,0-.8-.2c-.4-.2-.6-.6-.6-1.2h4.2c0-.5,0-.9,0-1.2,0-.5-.2-.9-.5-1.2-.3-.4-.6-.7-1-.9-.4-.2-.9-.3-1.4-.3-.9,0-1.5.3-2.1.8-.5.5-.8,1.3-.8,2.3,0,1.1.3,1.9.9,2.3ZM14.5,11.4c.2-.2.5-.3.9-.3s.7.1.9.3c.2.2.4.5.4.9h-2.6c0-.4.2-.7.4-.9Z"/>
            <rect class="cls-1" x="13.6" y="8.4" width="3.4" height=".8"/>
          </g>
        </g>
      </g>
    </g>
    <g id="Capa_2" class="cls-4">
      <g>
        <path class="cls-3" d="M12,23.2h0C5.8,23.2.8,18.2.8,12h0C.8,5.8,5.8.8,12,.8h0c6.2,0,11.2,5,11.2,11.2h0c0,6.2-5,11.2-11.2,11.2Z"/>
        <g>
          <g>
            <rect class="cls-1" x="6.9" y="9.5" width="2.3" height="7.5"/>
            <path class="cls-1" d="M8.1,8.5c.8,0,1.4-.6,1.4-1.4s-.6-1.4-1.4-1.4-1.4.6-1.4,1.4.6,1.4,1.4,1.4Z"/>
          </g>
          <path class="cls-1" d="M12.9,13.1c0-1.1.5-1.7,1.4-1.7s1.3.6,1.3,1.7v3.9h2.3v-4.8c0-2-1.1-3-2.7-3s-2.3,1.2-2.3,1.2v-1h-2.2v7.5h2.2s0-2.8,0-3.9Z"/>
        </g>
      </g>
    </g>
    <g id="Capa_3" class="cls-4">
      <g>
        <path class="cls-3" d="M12,23.2h0C5.8,23.2.8,18.2.8,12h0C.8,5.8,5.8.8,12,.8h0c6.2,0,11.2,5,11.2,11.2h0c0,6.2-5,11.2-11.2,11.2Z"/>
        <g>
          <path class="cls-2" d="M18.2,11.7c0-3.2-2.8-5.8-6-5.8s-5.9,2.5-6,5.7c0,0,0,.2,0,.3,0,1.1.3,2.2.9,3.1l-1.1,3.2,3.3-1.1c.9.5,1.9.7,2.9.7,3.3,0,6-2.7,6-6,0,0,0-.1,0-.2ZM12.1,16.9c-1,0-2-.3-2.8-.8l-2,.6.6-1.9c-.6-.8-1-1.9-1-3s0-.3,0-.5c.2-2.6,2.4-4.6,5.1-4.6s4.9,2.1,5.1,4.7c0,.1,0,.3,0,.4,0,2.8-2.3,5-5.1,5Z"/>
          <path class="cls-2" d="M14.9,13.1c-.1,0-.9-.4-1-.5-.1,0-.2,0-.3,0,0,.1-.4.5-.5.6,0,0-.2.1-.3,0-.1,0-.6-.2-1.2-.7-.4-.4-.7-.9-.8-1,0-.1,0-.2,0-.3,0,0,.1-.2.2-.3,0,0,0,0,0,0,0,0,0-.1,0-.2,0,0,0-.2,0-.3s-.3-.8-.5-1.1c-.1-.3-.2-.2-.3-.2s-.2,0-.3,0-.3,0-.4.2c-.1.1-.5.5-.5,1.2s0,.3,0,.5c.1.5.5.9.5,1,0,0,1,1.6,2.5,2.2,1.5.6,1.5.4,1.8.4.3,0,.9-.4,1-.7.1-.3.1-.6,0-.7,0,0-.1,0-.3-.2Z"/>
        </g>
      </g>
    </g>
    <g id="Capa_4">
      <g>
        <path class="cls-3" d="M12,23.2h0C5.8,23.2.8,18.2.8,12h0C.8,5.8,5.8.8,12,.8h0c6.2,0,11.2,5,11.2,11.2h0c0,6.2-5,11.2-11.2,11.2Z"/>
        <g>
          <path class="cls-1" d="M12,7c1.6,0,1.8,0,2.5,0,.6,0,.9.1,1.1.2.3.1.5.2.7.5.2.2.3.4.5.7,0,.2.2.5.2,1.1,0,.6,0,.8,0,2.5s0,1.8,0,2.5c0,.6-.1.9-.2,1.1-.1.3-.2.5-.5.7-.2.2-.4.3-.7.5-.2,0-.5.2-1.1.2-.6,0-.8,0-2.5,0s-1.8,0-2.5,0c-.6,0-.9-.1-1.1-.2-.3-.1-.5-.2-.7-.5-.2-.2-.3-.4-.5-.7,0-.2-.2-.5-.2-1.1,0-.6,0-.8,0-2.5s0-1.8,0-2.5c0-.6.1-.9.2-1.1.1-.3.2-.5.5-.7.2-.2.4-.3.7-.5.2,0,.5-.2,1.1-.2.6,0,.8,0,2.5,0M12,5.8c-1.7,0-1.9,0-2.5,0-.7,0-1.1.1-1.5.3-.4.2-.7.4-1.1.7-.3.3-.6.7-.7,1.1-.2.4-.3.8-.3,1.5,0,.7,0,.9,0,2.5s0,1.9,0,2.5c0,.7.1,1.1.3,1.5.2.4.4.7.7,1.1.3.3.7.6,1.1.7.4.2.8.3,1.5.3.7,0,.9,0,2.5,0s1.9,0,2.5,0c.7,0,1.1-.1,1.5-.3.4-.2.7-.4,1.1-.7s.6-.7.7-1.1c.2-.4.3-.8.3-1.5,0-.7,0-.9,0-2.5s0-1.9,0-2.5c0-.7-.1-1.1-.3-1.5-.2-.4-.4-.7-.7-1.1-.3-.3-.7-.6-1.1-.7-.4-.2-.8-.3-1.5-.3-.7,0-.9,0-2.5,0"/>
          <path class="cls-1" d="M12,8.8c-1.7,0-3.2,1.4-3.2,3.2s1.4,3.2,3.2,3.2,3.2-1.4,3.2-3.2-1.4-3.2-3.2-3.2M12,14.1c-1.1,0-2.1-.9-2.1-2.1s.9-2.1,2.1-2.1,2.1.9,2.1,2.1-.9,2.1-2.1,2.1"/>
          <path class="cls-1" d="M16,8.7c0,.4-.3.7-.7.7s-.7-.3-.7-.7.3-.7.7-.7.7.3.7.7"/>
        </g>
      </g>
    </g>
  </g>
</svg>